<?xml version="1.0" encoding="UTF-8"?>
<!DOCTYPE svg PUBLIC "-//W3C//DTD SVG 1.1//EN" "http://www.w3.org/Graphics/SVG/1.1/DTD/svg11.dtd">
<svg xmlns="http://www.w3.org/2000/svg" version="1.1" width="653px" height="663px" style="shape-rendering:geometricPrecision; text-rendering:geometricPrecision; image-rendering:optimizeQuality; fill-rule:evenodd; clip-rule:evenodd" xmlns:xlink="http://www.w3.org/1999/xlink">
<g><path style="opacity:0.152" fill="#f1f9f9" d="M 641.5,274.5 C 641.859,266.157 642.025,257.824 642,249.5C 571.43,151.918 480.597,80.0848 369.5,34C 355.06,28.687 340.394,23.8537 325.5,19.5C 243.81,44.6653 170.81,85.4986 106.5,142C 70.7796,173.382 38.9463,208.216 11,246.5C 9.90666,250.216 9.40666,254.05 9.5,258C 10.1947,268.502 10.8614,279.002 11.5,289.5C 8.95445,277.389 7.28779,264.889 6.5,252C 6.97836,249.774 7.64503,247.608 8.5,245.5C 19.3675,229.129 31.2008,213.462 44,198.5C 58.8333,184.333 73.3333,169.833 87.5,155C 96.7335,147.868 105.4,140.035 113.5,131.5C 124.861,122.144 136.528,113.144 148.5,104.5C 160.234,96.7338 171.901,89.0671 183.5,81.5C 185.5,79.5 187.5,77.5 189.5,75.5C 211.438,64.6986 233.105,53.6986 254.5,42.5C 268.244,37.4649 281.911,32.1316 295.5,26.5C 299.707,24.8455 304.041,23.6788 308.5,23C 308.167,22.6667 307.833,22.3333 307.5,22C 309.833,21.6667 312.167,21.3333 314.5,21C 314.167,20.6667 313.833,20.3333 313.5,20C 316.137,18.4622 319.47,17.2955 323.5,16.5C 342.829,21.9007 363.829,29.0674 386.5,38C 416.096,51.9853 445.762,67.652 475.5,85C 491.339,97.414 507.673,109.081 524.5,120C 537.27,131.891 550.27,143.558 563.5,155C 583.741,175.072 603.407,195.572 622.5,216.5C 629.587,225.913 636.253,235.579 642.5,245.5C 642.833,250.333 643.167,255.167 643.5,260C 643.494,265.216 642.827,270.049 641.5,274.5 Z"/></g>
<g><path style="opacity:1" fill="#1a8998" d="M 641.5,274.5 C 641.5,274.833 641.5,275.167 641.5,275.5C 639.271,290.999 637.271,306.665 635.5,322.5C 635.5,322.833 635.5,323.167 635.5,323.5C 614.113,430.188 576.113,530.354 521.5,624C 496.356,627.969 471.356,632.135 446.5,636.5C 446.167,636.5 445.833,636.5 445.5,636.5C 428.665,638.247 411.998,640.247 395.5,642.5C 394.209,642.263 393.209,642.596 392.5,643.5C 384.704,642.454 377.037,642.788 369.5,644.5C 368.833,644.5 368.167,644.5 367.5,644.5C 338.163,645.728 308.829,645.728 279.5,644.5C 271.097,644.53 262.763,643.864 254.5,642.5C 249.319,641.685 243.986,641.018 238.5,640.5C 237.833,640.5 237.167,640.5 236.5,640.5C 231.367,639.335 226.034,638.668 220.5,638.5C 219.5,638.5 218.5,638.5 217.5,638.5C 213.036,637.356 208.37,636.69 203.5,636.5C 203.167,636.5 202.833,636.5 202.5,636.5C 198.409,635.105 194.076,634.438 189.5,634.5C 188.833,634.5 188.167,634.5 187.5,634.5C 183.79,632.864 179.79,632.198 175.5,632.5C 174.833,632.5 174.167,632.5 173.5,632.5C 159.542,629.41 145.375,626.743 131,624.5C 119.065,606.305 108.398,587.305 99,567.5C 71.4139,511.244 49.2473,452.911 32.5,392.5C 31.7673,387.555 30.434,382.888 28.5,378.5C 21.3667,349.66 15.7,320.66 11.5,291.5C 11.5,290.833 11.5,290.167 11.5,289.5C 10.8614,279.002 10.1947,268.502 9.5,258C 9.40666,254.05 9.90666,250.216 11,246.5C 38.9463,208.216 70.7796,173.382 106.5,142C 170.81,85.4986 243.81,44.6653 325.5,19.5C 340.394,23.8537 355.06,28.687 369.5,34C 480.597,80.0848 571.43,151.918 642,249.5C 642.025,257.824 641.859,266.157 641.5,274.5 Z"/></g>
<g><path style="opacity:1" fill="#a5d6da" d="M 323.5,27.5 C 319.498,29.6098 315.165,30.9431 310.5,31.5C 314.502,29.3902 318.835,28.0569 323.5,27.5 Z"/></g>
<g><path style="opacity:1" fill="#f2f9f9" d="M 462.5,626.5 C 455.264,626.765 448.264,627.765 441.5,629.5C 441.167,629.5 440.833,629.5 440.5,629.5C 431.933,629.729 423.6,630.729 415.5,632.5C 372.991,637.917 330.324,639.584 287.5,637.5C 276.446,635.036 265.113,634.036 253.5,634.5C 250.098,634.658 246.764,634.324 243.5,633.5C 239.1,631.896 234.434,631.229 229.5,631.5C 198.044,628.111 166.711,623.611 135.5,618C 134,617.167 132.833,616 132,614.5C 93.0789,544.653 62.4122,471.32 40,394.5C 30.741,357.872 23.4077,320.872 18,283.5C 16.9612,272.512 16.6279,261.512 17,250.5C 92.5898,147.778 190.423,74.7784 310.5,31.5C 315.165,30.9431 319.498,29.6098 323.5,27.5C 323.917,26.8761 324.584,26.5427 325.5,26.5C 452.969,68.1451 556.136,143.145 635,251.5C 634.493,271.248 632.827,290.915 630,310.5C 610.447,419.516 572.947,521.683 517.5,617C 499.051,620.227 480.718,623.394 462.5,626.5 Z"/></g>
<g><path style="opacity:1" fill="#138898" d="M 330.5,35.5 C 336.941,38.2042 343.608,40.5375 350.5,42.5C 449.482,79.0792 532.982,137.746 601,218.5C 610.052,229.885 618.719,241.551 627,253.5C 625.104,294.773 619.104,335.44 609,375.5C 587.194,457.914 555.028,536.08 512.5,610C 493.028,613.179 473.695,616.345 454.5,619.5C 443.959,620.275 433.626,621.609 423.5,623.5C 418.586,623.362 413.919,624.028 409.5,625.5C 393.169,626.833 376.836,628.166 360.5,629.5C 342.178,630.293 323.845,630.627 305.5,630.5C 297.817,630.477 290.15,630.143 282.5,629.5C 276.37,628.253 270.037,627.586 263.5,627.5C 221.906,623.512 180.573,617.679 139.5,610C 87.1995,522.215 51.5328,428.049 32.5,327.5C 31.5781,319.302 30.2447,311.302 28.5,303.5C 27.0023,290.023 25.669,276.523 24.5,263C 24.3993,258.719 24.8993,254.552 26,250.5C 101.899,147.691 200.065,75.8579 320.5,35C 323.888,34.3412 327.221,34.5078 330.5,35.5 Z"/></g>
<g><path style="opacity:1" fill="#fdfefe" d="M 323.5,46.5 C 343.652,51.9542 363.319,58.7875 382.5,67C 476.154,110.112 553.654,173.279 615,256.5C 611.001,322.176 597.667,385.842 575,447.5C 556.109,499.622 533.109,549.956 506,598.5C 446.342,610.415 386.008,617.081 325,618.5C 264.599,617.387 204.765,611.054 145.5,599.5C 105.373,526.63 74.5399,449.963 53,369.5C 43.9721,332.67 38.6388,295.336 37,257.5C 38.3988,254.371 40.0655,251.371 42,248.5C 115.332,152.679 209.165,85.3457 323.5,46.5 Z"/></g>
<g><path style="opacity:1" fill="#0b8696" d="M 393.5,157.5 C 410.735,174.973 420.735,195.973 423.5,220.5C 423.5,224.5 423.5,228.5 423.5,232.5C 417.5,232.5 411.5,232.5 405.5,232.5C 405.5,230.5 405.5,228.5 405.5,226.5C 407.352,212.632 406.352,198.965 402.5,185.5C 400.528,176.598 397.194,168.265 392.5,160.5C 392.263,159.209 392.596,158.209 393.5,157.5 Z"/></g>
<g><path style="opacity:1" fill="#108898" d="M 389.5,230.5 C 382.781,232.405 375.781,233.071 368.5,232.5C 372.21,215.362 373.376,198.028 372,180.5C 369.83,163.302 364.163,147.635 355,133.5C 383.788,159.636 395.288,191.969 389.5,230.5 Z"/></g>
<g><path style="opacity:1" fill="#68b3bb" d="M 348.5,156.5 C 350.806,160.085 352.139,164.085 352.5,168.5C 350.589,164.767 349.256,160.767 348.5,156.5 Z"/></g>
<g><path style="opacity:1" fill="#83bcc1" d="M 393.5,157.5 C 392.596,158.209 392.263,159.209 392.5,160.5C 391.101,158.058 389.434,155.724 387.5,153.5C 390.099,153.352 392.099,154.685 393.5,157.5 Z"/></g>
<g><path style="opacity:1" fill="#138998" d="M 348.5,156.5 C 349.256,160.767 350.589,164.767 352.5,168.5C 355.668,176.742 357.001,185.409 356.5,194.5C 356.351,206.723 354.685,218.723 351.5,230.5C 347.925,231.757 344.092,232.424 340,232.5C 336.317,232.499 332.817,232.165 329.5,231.5C 340.82,202.355 341.32,173.022 331,143.5C 328.133,136.927 324.633,130.761 320.5,125C 333.766,131.778 343.099,142.278 348.5,156.5 Z"/></g>
<g><path style="opacity:1" fill="#be202f" d="M 223.5,147.5 C 246.177,152.512 255.677,166.512 252,189.5C 242.489,210.293 226.656,217.46 204.5,211C 183.258,198.863 178.425,182.03 190,160.5C 194.797,154.862 200.63,150.862 207.5,148.5C 212.797,147.725 218.13,147.392 223.5,147.5 Z"/></g>
<g><path style="opacity:1" fill="#ce8996" d="M 223.5,147.5 C 218.13,147.392 212.797,147.725 207.5,148.5C 210.356,146.994 213.523,146.328 217,146.5C 219.361,146.504 221.527,146.837 223.5,147.5 Z"/></g>
<g><path style="opacity:1" fill="#a1d3d7" d="M 330.5,35.5 C 337.698,36.6752 344.365,39.0085 350.5,42.5C 343.608,40.5375 336.941,38.2042 330.5,35.5 Z"/></g>
<g><path style="opacity:1" fill="#128898" d="M 457.5,232.5 C 452.5,232.5 447.5,232.5 442.5,232.5C 442.822,226.642 442.489,220.975 441.5,215.5C 441.348,204.561 438.848,194.227 434,184.5C 431.664,179.825 428.831,175.492 425.5,171.5C 425.833,171.167 426.167,170.833 426.5,170.5C 440.015,179.499 449.181,191.832 454,207.5C 456.067,215.702 457.234,224.035 457.5,232.5 Z"/></g>
<g><path style="opacity:1" fill="#128898" d="M 488.5,223.5 C 488.963,226.482 489.296,229.482 489.5,232.5C 484.5,232.5 479.5,232.5 474.5,232.5C 473.895,213.023 468.228,195.689 457.5,180.5C 473.949,190.39 484.283,204.723 488.5,223.5 Z"/></g>
<g><path style="opacity:1" fill="#a9e0e4" d="M 402.5,185.5 C 406.352,198.965 407.352,212.632 405.5,226.5C 405.666,218.826 405.5,211.159 405,203.5C 403.844,197.532 403.011,191.532 402.5,185.5 Z"/></g>
<g><path style="opacity:1" fill="#6dcfdb" d="M 143.5,233.5 C 189.33,232.501 235.33,232.168 281.5,232.5C 281.5,232.833 281.5,233.167 281.5,233.5C 280.833,233.833 280.167,234.167 279.5,234.5C 234.336,233.501 189.003,233.168 143.5,233.5 Z"/></g>
<g><path style="opacity:1" fill="#7ea7a9" d="M 282.5,231.5 C 290.167,232.167 297.833,232.833 305.5,233.5C 297.5,233.5 289.5,233.5 281.5,233.5C 281.5,233.167 281.5,232.833 281.5,232.5C 281.5,231.833 281.833,231.5 282.5,231.5 Z"/></g>
<g><path style="opacity:1" fill="#6dd1da" d="M 308.5,231.5 C 314.979,232.491 321.646,232.824 328.5,232.5C 328.5,232.833 328.5,233.167 328.5,233.5C 321.468,233.83 314.468,233.497 307.5,232.5C 307.624,231.893 307.957,231.56 308.5,231.5 Z"/></g>
<g><path style="opacity:1" fill="#78bcc4" d="M 441.5,215.5 C 442.489,220.975 442.822,226.642 442.5,232.5C 447.5,232.5 452.5,232.5 457.5,232.5C 463.167,232.5 468.833,232.5 474.5,232.5C 479.5,232.5 484.5,232.5 489.5,232.5C 489.296,229.482 488.963,226.482 488.5,223.5C 489.791,225.949 490.791,228.616 491.5,231.5C 496.792,232.495 502.125,232.828 507.5,232.5C 507.5,232.833 507.5,233.167 507.5,233.5C 502.167,233.5 496.833,233.5 491.5,233.5C 491.5,234.5 491.5,235.5 491.5,236.5C 490.596,235.791 490.263,234.791 490.5,233.5C 485.5,233.5 480.5,233.5 475.5,233.5C 475.818,238.032 475.485,242.366 474.5,246.5C 474.5,242.167 474.5,237.833 474.5,233.5C 468.833,233.5 463.167,233.5 457.5,233.5C 452.5,233.5 447.5,233.5 442.5,233.5C 442.802,236.059 442.468,238.393 441.5,240.5C 441.5,238.167 441.5,235.833 441.5,233.5C 435.833,233.5 430.167,233.5 424.5,233.5C 424.802,236.059 424.468,238.393 423.5,240.5C 423.5,238.167 423.5,235.833 423.5,233.5C 417.5,233.5 411.5,233.5 405.5,233.5C 405.737,234.791 405.404,235.791 404.5,236.5C 404.5,235.5 404.5,234.5 404.5,233.5C 399.073,233.218 393.74,233.551 388.5,234.5C 381.599,233.19 374.599,233.19 367.5,234.5C 364.854,233.836 362.021,233.502 359,233.5C 355.567,233.597 352.4,234.263 349.5,235.5C 342.913,233.539 335.913,232.872 328.5,233.5C 328.5,233.167 328.5,232.833 328.5,232.5C 328.5,231.833 328.833,231.5 329.5,231.5C 332.817,232.165 336.317,232.499 340,232.5C 344.092,232.424 347.925,231.757 351.5,230.5C 356.735,232.45 362.402,233.117 368.5,232.5C 375.781,233.071 382.781,232.405 389.5,230.5C 394.396,232.446 399.729,233.113 405.5,232.5C 411.5,232.5 417.5,232.5 423.5,232.5C 423.5,228.5 423.5,224.5 423.5,220.5C 424.483,224.298 424.817,228.298 424.5,232.5C 430.167,232.5 435.833,232.5 441.5,232.5C 441.5,226.833 441.5,221.167 441.5,215.5 Z"/></g>
<g><path style="opacity:1" fill="#088797" d="M 308.5,231.5 C 307.957,231.56 307.624,231.893 307.5,232.5C 314.468,233.497 321.468,233.83 328.5,233.5C 313.075,263.247 288.742,280.581 255.5,285.5C 239.827,286.645 224.16,286.812 208.5,286C 211.08,287.144 213.747,287.978 216.5,288.5C 222.747,290.703 229.08,292.37 235.5,293.5C 238.903,294.925 242.57,295.758 246.5,296C 256.009,296.824 265.343,296.658 274.5,295.5C 311.909,290.967 336.909,270.967 349.5,235.5C 352.4,234.263 355.567,233.597 359,233.5C 362.021,233.502 364.854,233.836 367.5,234.5C 351.259,280.399 318.925,306.399 270.5,312.5C 258.845,313.135 247.178,313.635 235.5,314C 237.743,315.136 240.076,315.97 242.5,316.5C 292.581,330.749 334.414,318.082 368,278.5C 377.803,265.227 384.636,250.56 388.5,234.5C 393.74,233.551 399.073,233.218 404.5,233.5C 404.5,234.5 404.5,235.5 404.5,236.5C 397.606,275.148 377.273,304.315 343.5,324C 330.075,331.14 315.742,335.473 300.5,337C 289.167,337.333 277.833,337.667 266.5,338C 316.862,354.253 360.029,343.086 396,304.5C 411.655,286.061 420.821,264.728 423.5,240.5C 424.468,238.393 424.802,236.059 424.5,233.5C 430.167,233.5 435.833,233.5 441.5,233.5C 441.5,235.833 441.5,238.167 441.5,240.5C 435.746,284.53 414.413,318.696 377.5,343C 349.928,357.595 320.595,363.595 289.5,361C 369.788,383.592 423.955,355.758 452,277.5C 455.967,263.098 457.8,248.432 457.5,233.5C 463.167,233.5 468.833,233.5 474.5,233.5C 474.5,237.833 474.5,242.167 474.5,246.5C 471.513,301.23 446.846,342.73 400.5,371C 375.261,383.208 348.594,388.542 320.5,387C 371.891,404.643 416.391,394.143 454,355.5C 481.858,320.756 494.358,281.089 491.5,236.5C 491.5,235.5 491.5,234.5 491.5,233.5C 496.833,233.5 502.167,233.5 507.5,233.5C 508.499,344.999 508.833,456.665 508.5,568.5C 386.833,568.5 265.167,568.5 143.5,568.5C 143.5,456.833 143.5,345.167 143.5,233.5C 189.003,233.168 234.336,233.501 279.5,234.5C 262.889,248.967 243.556,257.8 221.5,261C 215.523,261.831 209.523,262.331 203.5,262.5C 196.159,262.334 188.826,262.5 181.5,263C 183.154,263.608 184.821,264.108 186.5,264.5C 207.997,271.571 229.997,273.404 252.5,270C 275.258,264.967 293.258,252.967 306.5,234C 306.272,233.601 305.938,233.435 305.5,233.5C 297.833,232.833 290.167,232.167 282.5,231.5C 307.868,201.485 314.035,167.818 301,130.5C 297.474,123.283 293.307,116.449 288.5,110C 288.833,109.833 289.167,109.667 289.5,109.5C 308.139,121.408 319.306,138.408 323,160.5C 325.982,185.814 321.148,209.481 308.5,231.5 Z"/></g>
<g><path style="opacity:1" fill="#f7fcfb" d="M 491.5,236.5 C 494.358,281.089 481.858,320.756 454,355.5C 416.391,394.143 371.891,404.643 320.5,387C 348.594,388.542 375.261,383.208 400.5,371C 446.846,342.73 471.513,301.23 474.5,246.5C 475.485,242.366 475.818,238.032 475.5,233.5C 480.5,233.5 485.5,233.5 490.5,233.5C 490.263,234.791 490.596,235.791 491.5,236.5 Z"/></g>
<g><path style="opacity:1" fill="#f7fbfb" d="M 423.5,240.5 C 420.821,264.728 411.655,286.061 396,304.5C 360.029,343.086 316.862,354.253 266.5,338C 277.833,337.667 289.167,337.333 300.5,337C 315.742,335.473 330.075,331.14 343.5,324C 377.273,304.315 397.606,275.148 404.5,236.5C 405.404,235.791 405.737,234.791 405.5,233.5C 411.5,233.5 417.5,233.5 423.5,233.5C 423.5,235.833 423.5,238.167 423.5,240.5 Z"/></g>
<g><path style="opacity:1" fill="#f9fcfc" d="M 388.5,234.5 C 384.636,250.56 377.803,265.227 368,278.5C 334.414,318.082 292.581,330.749 242.5,316.5C 250.44,314.692 258.773,313.859 267.5,314C 268.737,313.768 269.737,313.268 270.5,312.5C 318.925,306.399 351.259,280.399 367.5,234.5C 374.599,233.19 381.599,233.19 388.5,234.5 Z"/></g>
<g><path style="opacity:1" fill="#f9fcfc" d="M 328.5,233.5 C 335.913,232.872 342.913,233.539 349.5,235.5C 336.909,270.967 311.909,290.967 274.5,295.5C 261.422,295.868 248.422,295.201 235.5,293.5C 229.08,292.37 222.747,290.703 216.5,288.5C 227.326,287.67 238.326,287.17 249.5,287C 251.708,286.809 253.708,286.309 255.5,285.5C 288.742,280.581 313.075,263.247 328.5,233.5 Z"/></g>
<g><path style="opacity:1" fill="#f7fbfb" d="M 281.5,233.5 C 289.5,233.5 297.5,233.5 305.5,233.5C 305.938,233.435 306.272,233.601 306.5,234C 293.258,252.967 275.258,264.967 252.5,270C 229.997,273.404 207.997,271.571 186.5,264.5C 192.167,263.833 197.833,263.167 203.5,262.5C 209.523,262.331 215.523,261.831 221.5,261C 243.556,257.8 262.889,248.967 279.5,234.5C 280.167,234.167 280.833,233.833 281.5,233.5 Z"/></g>
<g><path style="opacity:1" fill="#f8fcfb" d="M 457.5,233.5 C 457.8,248.432 455.967,263.098 452,277.5C 423.955,355.758 369.788,383.592 289.5,361C 320.595,363.595 349.928,357.595 377.5,343C 414.413,318.696 435.746,284.53 441.5,240.5C 442.468,238.393 442.802,236.059 442.5,233.5C 447.5,233.5 452.5,233.5 457.5,233.5 Z"/></g>
<g><path style="opacity:1" fill="#c9eff4" d="M 507.5,233.5 C 507.5,233.167 507.5,232.833 507.5,232.5C 509.498,344.495 510.165,456.828 509.5,569.5C 387.332,569.833 265.332,569.5 143.5,568.5C 265.167,568.5 386.833,568.5 508.5,568.5C 508.833,456.665 508.499,344.999 507.5,233.5 Z"/></g>
<g><path style="opacity:1" fill="#9ae2e8" d="M 203.5,262.5 C 197.833,263.167 192.167,263.833 186.5,264.5C 184.821,264.108 183.154,263.608 181.5,263C 188.826,262.5 196.159,262.334 203.5,262.5 Z"/></g>
<g><path style="opacity:0.152" fill="#e3f3f4" d="M 641.5,275.5 C 641.83,282.2 641.497,288.866 640.5,295.5C 639.548,304.908 637.882,313.908 635.5,322.5C 637.271,306.665 639.271,290.999 641.5,275.5 Z"/></g>
<g><path style="opacity:1" fill="#a1d9de" d="M 255.5,285.5 C 253.708,286.309 251.708,286.809 249.5,287C 238.326,287.17 227.326,287.67 216.5,288.5C 213.747,287.978 211.08,287.144 208.5,286C 224.16,286.812 239.827,286.645 255.5,285.5 Z"/></g>
<g><path style="opacity:1" fill="#b9e6eb" d="M 235.5,293.5 C 248.422,295.201 261.422,295.868 274.5,295.5C 265.343,296.658 256.009,296.824 246.5,296C 242.57,295.758 238.903,294.925 235.5,293.5 Z"/></g>
<g><path style="opacity:1" fill="#9dd1db" d="M 28.5,303.5 C 30.2447,311.302 31.5781,319.302 32.5,327.5C 29.8907,319.845 28.5574,311.845 28.5,303.5 Z"/></g>
<g><path style="opacity:1" fill="#bff3f6" d="M 270.5,312.5 C 269.737,313.268 268.737,313.768 267.5,314C 258.773,313.859 250.44,314.692 242.5,316.5C 240.076,315.97 237.743,315.136 235.5,314C 247.178,313.635 258.845,313.135 270.5,312.5 Z"/></g>
<g><path style="opacity:0.42" fill="#8dcad1" d="M 28.5,378.5 C 30.434,382.888 31.7673,387.555 32.5,392.5C 30.2562,388.207 28.9229,383.54 28.5,378.5 Z"/></g>
<g><path style="opacity:1" fill="#f3faf9" d="M 186.5,415.5 C 192.842,415.334 199.175,415.5 205.5,416C 211.234,419.18 213.067,424.013 211,430.5C 206.123,436.057 199.956,438.057 192.5,436.5C 192.5,440.5 192.5,444.5 192.5,448.5C 190.5,448.5 188.5,448.5 186.5,448.5C 186.5,437.5 186.5,426.5 186.5,415.5 Z"/></g>
<g><path style="opacity:1" fill="#fdfefd" d="M 282.5,415.5 C 284.5,415.5 286.5,415.5 288.5,415.5C 288.5,426.5 288.5,437.5 288.5,448.5C 286.5,448.5 284.5,448.5 282.5,448.5C 282.5,437.5 282.5,426.5 282.5,415.5 Z"/></g>
<g><path style="opacity:1" fill="#f6faf9" d="M 309.5,421.5 C 308.507,430.318 308.173,439.318 308.5,448.5C 306.833,448.5 305.167,448.5 303.5,448.5C 303.827,439.318 303.493,430.318 302.5,421.5C 299.167,421.5 295.833,421.5 292.5,421.5C 292.5,419.5 292.5,417.5 292.5,415.5C 301.5,415.5 310.5,415.5 319.5,415.5C 319.5,417.5 319.5,419.5 319.5,421.5C 316.167,421.5 312.833,421.5 309.5,421.5 Z"/></g>
<g><path style="opacity:1" fill="#f7fcfc" d="M 324.5,415.5 C 332.5,415.5 340.5,415.5 348.5,415.5C 348.5,417.5 348.5,419.5 348.5,421.5C 342.5,421.5 336.5,421.5 330.5,421.5C 330.198,424.059 330.532,426.393 331.5,428.5C 336.305,429.487 341.305,429.821 346.5,429.5C 346.5,430.833 346.5,432.167 346.5,433.5C 341.305,433.179 336.305,433.513 331.5,434.5C 330.523,437.287 330.19,440.287 330.5,443.5C 336.31,444.49 342.31,444.823 348.5,444.5C 348.5,445.833 348.5,447.167 348.5,448.5C 340.5,448.5 332.5,448.5 324.5,448.5C 324.5,437.5 324.5,426.5 324.5,415.5 Z"/></g>
<g><path style="opacity:1" fill="#f8fbfb" d="M 389.5,415.5 C 391.924,415.192 394.257,415.526 396.5,416.5C 400.416,423.335 404.583,430.002 409,436.5C 409.5,429.508 409.666,422.508 409.5,415.5C 411.5,415.5 413.5,415.5 415.5,415.5C 415.5,426.833 415.5,438.167 415.5,449.5C 413.076,449.808 410.743,449.474 408.5,448.5C 404.489,441.806 400.489,435.139 396.5,428.5C 396.44,427.957 396.107,427.624 395.5,427.5C 394.503,434.468 394.17,441.468 394.5,448.5C 392.833,448.5 391.167,448.5 389.5,448.5C 389.5,437.5 389.5,426.5 389.5,415.5 Z"/></g>
<g><path style="opacity:1" fill="#fafcfc" d="M 423.5,415.5 C 425.5,415.5 427.5,415.5 429.5,415.5C 429.5,426.5 429.5,437.5 429.5,448.5C 427.5,448.5 425.5,448.5 423.5,448.5C 423.5,437.5 423.5,426.5 423.5,415.5 Z"/></g>
<g><path style="opacity:1" fill="#eef7f7" d="M 435.5,415.5 C 437.833,415.5 440.167,415.5 442.5,415.5C 442.173,420.214 442.507,424.88 443.5,429.5C 447.686,425.149 451.686,420.649 455.5,416C 458.554,415.179 461.554,415.345 464.5,416.5C 460.833,420.5 457.167,424.5 453.5,428.5C 457.5,435.167 461.5,441.833 465.5,448.5C 462.894,449.652 460.227,449.818 457.5,449C 454.954,445.41 452.787,441.577 451,437.5C 448.049,433.6 445.382,433.933 443,438.5C 442.501,442.152 442.335,445.818 442.5,449.5C 440.167,449.5 437.833,449.5 435.5,449.5C 435.5,438.167 435.5,426.833 435.5,415.5 Z"/></g>
<g><path style="opacity:1" fill="#f0f9f8" d="M 235.5,449.5 C 231.802,449.448 228.135,449.114 224.5,448.5C 219.776,446.424 216.942,442.758 216,437.5C 213.849,421.656 220.682,414.156 236.5,415C 242.026,416.526 245.526,420.026 247,425.5C 247.667,430.167 247.667,434.833 247,439.5C 244.853,444.816 241.02,448.149 235.5,449.5 Z"/></g>
<g><path style="opacity:1" fill="#168795" d="M 192.5,421.5 C 195.85,421.335 199.183,421.502 202.5,422C 205.25,425.012 204.917,427.679 201.5,430C 198.518,430.498 195.518,430.665 192.5,430.5C 192.5,427.5 192.5,424.5 192.5,421.5 Z"/></g>
<g><path style="opacity:1" fill="#77b7bc" d="M 355.5,415.5 C 355.5,426.5 355.5,437.5 355.5,448.5C 357.5,448.5 359.5,448.5 361.5,448.5C 361.187,444.958 361.521,441.625 362.5,438.5C 362.5,442.167 362.5,445.833 362.5,449.5C 359.833,449.5 357.167,449.5 354.5,449.5C 354.172,437.988 354.505,426.654 355.5,415.5 Z"/></g>
<g><path style="opacity:1" fill="#bde2e8" d="M 260.5,443.5 C 266.167,443.5 271.833,443.5 277.5,443.5C 277.5,445.5 277.5,447.5 277.5,449.5C 269.5,449.5 261.5,449.5 253.5,449.5C 253.5,438.167 253.5,426.833 253.5,415.5C 255.833,415.5 258.167,415.5 260.5,415.5C 260.5,424.833 260.5,434.167 260.5,443.5 Z"/></g>
<g><path style="opacity:1" fill="#fdfefd" d="M 260.5,443.5 C 265.64,444.488 270.974,444.821 276.5,444.5C 276.5,445.833 276.5,447.167 276.5,448.5C 269.167,448.5 261.833,448.5 254.5,448.5C 254.5,437.833 254.5,427.167 254.5,416.5C 256.167,416.5 257.833,416.5 259.5,416.5C 259.173,425.682 259.507,434.682 260.5,443.5 Z"/></g>
<g><path style="opacity:1" fill="#bde2e9" d="M 302.5,421.5 C 303.493,430.318 303.827,439.318 303.5,448.5C 305.167,448.5 306.833,448.5 308.5,448.5C 308.173,439.318 308.507,430.318 309.5,421.5C 309.5,430.833 309.5,440.167 309.5,449.5C 307.167,449.5 304.833,449.5 302.5,449.5C 302.5,440.167 302.5,430.833 302.5,421.5 Z"/></g>
<g><path style="opacity:1" fill="#c0edee" d="M 423.5,415.5 C 423.5,426.5 423.5,437.5 423.5,448.5C 425.5,448.5 427.5,448.5 429.5,448.5C 427.393,449.468 425.059,449.802 422.5,449.5C 422.172,437.988 422.505,426.654 423.5,415.5 Z"/></g>
<g><path style="opacity:1" fill="#bef4f9" d="M 186.5,415.5 C 186.5,426.5 186.5,437.5 186.5,448.5C 188.5,448.5 190.5,448.5 192.5,448.5C 190.393,449.468 188.059,449.802 185.5,449.5C 185.172,437.988 185.505,426.654 186.5,415.5 Z"/></g>
<g><path style="opacity:1" fill="#a6e4eb" d="M 282.5,415.5 C 282.5,426.5 282.5,437.5 282.5,448.5C 284.5,448.5 286.5,448.5 288.5,448.5C 286.393,449.468 284.059,449.802 281.5,449.5C 281.172,437.988 281.505,426.654 282.5,415.5 Z"/></g>
<g><path style="opacity:1" fill="#f5fbfa" d="M 355.5,415.5 C 357.5,415.5 359.5,415.5 361.5,415.5C 361.5,420.167 361.5,424.833 361.5,429.5C 363.179,429.715 364.179,429.048 364.5,427.5C 367.811,423.853 371.145,420.187 374.5,416.5C 377.784,415.343 381.118,415.176 384.5,416C 380.318,420.015 376.318,424.182 372.5,428.5C 376.084,434.669 379.917,440.669 384,446.5C 384.483,447.448 384.649,448.448 384.5,449.5C 381.813,449.664 379.146,449.497 376.5,449C 373.696,443.881 370.529,439.047 367,434.5C 365.02,435.315 363.52,436.648 362.5,438.5C 361.521,441.625 361.187,444.958 361.5,448.5C 359.5,448.5 357.5,448.5 355.5,448.5C 355.5,437.5 355.5,426.5 355.5,415.5 Z"/></g>
<g><path style="opacity:1" fill="#8fc7cb" d="M 361.5,415.5 C 362.325,419.647 362.825,423.981 363,428.5C 363.383,427.944 363.883,427.611 364.5,427.5C 364.179,429.048 363.179,429.715 361.5,429.5C 361.5,424.833 361.5,420.167 361.5,415.5 Z"/></g>
<g><path style="opacity:1" fill="#b0f0f4" d="M 331.5,428.5 C 336.833,428.5 342.167,428.5 347.5,428.5C 347.5,430.5 347.5,432.5 347.5,434.5C 342.167,434.5 336.833,434.5 331.5,434.5C 336.305,433.513 341.305,433.179 346.5,433.5C 346.5,432.167 346.5,430.833 346.5,429.5C 341.305,429.821 336.305,429.487 331.5,428.5 Z"/></g>
<g><path style="opacity:1" fill="#138896" d="M 228.5,420.5 C 238.292,420.793 242.458,425.793 241,435.5C 239.38,443.031 234.88,445.531 227.5,443C 223.151,438.791 221.651,433.624 223,427.5C 223.967,424.379 225.8,422.046 228.5,420.5 Z"/></g>
<g><path style="opacity:1" fill="#9cd2d7" d="M 389.5,415.5 C 389.5,426.5 389.5,437.5 389.5,448.5C 391.167,448.5 392.833,448.5 394.5,448.5C 394.17,441.468 394.503,434.468 395.5,427.5C 396.107,427.624 396.44,427.957 396.5,428.5C 395.509,435.313 395.175,442.313 395.5,449.5C 393.167,449.5 390.833,449.5 388.5,449.5C 388.172,437.988 388.505,426.654 389.5,415.5 Z"/></g>
<g><path style="opacity:1" fill="#bde0e3" d="M 324.5,415.5 C 324.5,426.5 324.5,437.5 324.5,448.5C 332.5,448.5 340.5,448.5 348.5,448.5C 348.5,447.167 348.5,445.833 348.5,444.5C 342.31,444.823 336.31,444.49 330.5,443.5C 336.833,443.5 343.167,443.5 349.5,443.5C 349.5,445.5 349.5,447.5 349.5,449.5C 340.833,449.5 332.167,449.5 323.5,449.5C 323.172,437.988 323.505,426.654 324.5,415.5 Z"/></g>
<g><path style="opacity:1" fill="#94c5cd" d="M 224.5,448.5 C 228.135,449.114 231.802,449.448 235.5,449.5C 231.71,450.902 228.044,450.569 224.5,448.5 Z"/></g>
<g><path style="opacity:1" fill="#f7fcfb" d="M 192.5,463.5 C 196.5,470.167 200.5,476.833 204.5,483.5C 204.56,484.043 204.893,484.376 205.5,484.5C 206.497,477.532 206.83,470.532 206.5,463.5C 208.167,463.5 209.833,463.5 211.5,463.5C 211.5,474.167 211.5,484.833 211.5,495.5C 209.167,495.5 206.833,495.5 204.5,495.5C 200.605,488.721 196.439,482.055 192,475.5C 191.5,482.492 191.334,489.492 191.5,496.5C 189.833,496.5 188.167,496.5 186.5,496.5C 186.5,485.5 186.5,474.5 186.5,463.5C 188.5,463.5 190.5,463.5 192.5,463.5 Z"/></g>
<g><path style="opacity:1" fill="#f4fbfa" d="M 244.5,491.5 C 244.5,493.167 244.5,494.833 244.5,496.5C 236.167,496.5 227.833,496.5 219.5,496.5C 219.5,485.167 219.5,473.833 219.5,462.5C 227.833,462.5 236.167,462.5 244.5,462.5C 244.5,464.5 244.5,466.5 244.5,468.5C 238.5,468.5 232.5,468.5 226.5,468.5C 226.5,471.167 226.5,473.833 226.5,476.5C 232.167,476.5 237.833,476.5 243.5,476.5C 243.5,478.167 243.5,479.833 243.5,481.5C 237.833,481.5 232.167,481.5 226.5,481.5C 226.5,484.833 226.5,488.167 226.5,491.5C 232.5,491.5 238.5,491.5 244.5,491.5 Z"/></g>
<g><path style="opacity:1" fill="#f9fdfc" d="M 311.5,468.5 C 305.833,468.5 300.167,468.5 294.5,468.5C 294.5,470.833 294.5,473.167 294.5,475.5C 299.64,476.488 304.974,476.821 310.5,476.5C 310.5,478.167 310.5,479.833 310.5,481.5C 304.974,481.179 299.64,481.512 294.5,482.5C 293.523,485.287 293.19,488.287 293.5,491.5C 299.833,491.5 306.167,491.5 312.5,491.5C 312.5,492.833 312.5,494.167 312.5,495.5C 304.5,495.5 296.5,495.5 288.5,495.5C 288.5,484.833 288.5,474.167 288.5,463.5C 296.167,463.5 303.833,463.5 311.5,463.5C 311.5,465.167 311.5,466.833 311.5,468.5 Z"/></g>
<g><path style="opacity:1" fill="#f4fbfa" d="M 337.5,463.5 C 341.17,463.327 343.67,464.993 345,468.5C 346.861,475.109 344.694,479.775 338.5,482.5C 342.247,486.331 345.247,490.665 347.5,495.5C 345.393,496.468 343.059,496.802 340.5,496.5C 337.892,492.146 334.892,487.979 331.5,484C 329.655,482.872 327.655,482.372 325.5,482.5C 325.5,487.167 325.5,491.833 325.5,496.5C 323.5,496.5 321.5,496.5 319.5,496.5C 319.5,485.5 319.5,474.5 319.5,463.5C 325.5,463.5 331.5,463.5 337.5,463.5 Z"/></g>
<g><path style="opacity:1" fill="#bde8ed" d="M 337.5,463.5 C 331.5,463.5 325.5,463.5 319.5,463.5C 319.5,474.5 319.5,485.5 319.5,496.5C 321.5,496.5 323.5,496.5 325.5,496.5C 323.393,497.468 321.059,497.802 318.5,497.5C 318.5,485.833 318.5,474.167 318.5,462.5C 325.022,462.177 331.355,462.51 337.5,463.5 Z"/></g>
<g><path style="opacity:1" fill="#208b9a" d="M 325.5,468.5 C 329.182,468.335 332.848,468.501 336.5,469C 339.167,471.667 339.167,474.333 336.5,477C 332.848,477.499 329.182,477.665 325.5,477.5C 325.5,474.5 325.5,471.5 325.5,468.5 Z"/></g>
<g><path style="opacity:1" fill="#a9d5d8" d="M 204.5,495.5 C 206.833,495.5 209.167,495.5 211.5,495.5C 211.5,484.833 211.5,474.167 211.5,463.5C 209.833,463.5 208.167,463.5 206.5,463.5C 206.83,470.532 206.497,477.532 205.5,484.5C 204.893,484.376 204.56,484.043 204.5,483.5C 205.491,476.687 205.825,469.687 205.5,462.5C 207.833,462.5 210.167,462.5 212.5,462.5C 212.5,474.167 212.5,485.833 212.5,497.5C 210.143,497.663 207.81,497.497 205.5,497C 204.944,496.617 204.611,496.117 204.5,495.5 Z"/></g>
<g><path style="opacity:1" fill="#72c1ce" d="M 294.5,475.5 C 300.167,475.5 305.833,475.5 311.5,475.5C 311.795,477.735 311.461,479.735 310.5,481.5C 310.5,479.833 310.5,478.167 310.5,476.5C 304.974,476.821 299.64,476.488 294.5,475.5 Z"/></g>
<g><path style="opacity:1" fill="#c8e3e4" d="M 311.5,468.5 C 311.5,466.833 311.5,465.167 311.5,463.5C 303.833,463.5 296.167,463.5 288.5,463.5C 288.5,474.167 288.5,484.833 288.5,495.5C 296.5,495.5 304.5,495.5 312.5,495.5C 304.567,497.468 296.234,498.135 287.5,497.5C 287.5,485.833 287.5,474.167 287.5,462.5C 295.833,462.5 304.167,462.5 312.5,462.5C 312.795,464.735 312.461,466.735 311.5,468.5 Z"/></g>
<g><path style="opacity:1" fill="#7ec7cf" d="M 352.5,496.5 C 351.505,485.346 351.172,474.012 351.5,462.5C 354.167,462.5 356.833,462.5 359.5,462.5C 359.5,474.167 359.5,485.833 359.5,497.5C 356.941,497.802 354.607,497.468 352.5,496.5 Z"/></g>
<g><path style="opacity:1" fill="#fbfdfc" d="M 352.5,496.5 C 352.5,485.5 352.5,474.5 352.5,463.5C 354.5,463.5 356.5,463.5 358.5,463.5C 358.5,474.5 358.5,485.5 358.5,496.5C 356.5,496.5 354.5,496.5 352.5,496.5 Z"/></g>
<g><path style="opacity:1" fill="#f3f9f9" d="M 266.5,479.5 C 271.167,479.5 275.833,479.5 280.5,479.5C 280.5,483.833 280.5,488.167 280.5,492.5C 274.665,497.062 267.999,498.562 260.5,497C 251.237,491.919 247.737,484.085 250,473.5C 254.635,463.103 262.468,459.603 273.5,463C 277.095,464.764 279.428,467.598 280.5,471.5C 276.468,473.285 273.134,472.451 270.5,469C 261.44,467.059 256.773,470.726 256.5,480C 257.232,490.736 262.566,494.069 272.5,490C 274.192,488.599 274.859,486.766 274.5,484.5C 271.833,484.5 269.167,484.5 266.5,484.5C 266.5,482.833 266.5,481.167 266.5,479.5 Z"/></g>
<g><path style="opacity:1" fill="#97d5e2" d="M 266.5,479.5 C 271.305,478.513 276.305,478.179 281.5,478.5C 281.819,483.363 281.486,488.03 280.5,492.5C 280.5,488.167 280.5,483.833 280.5,479.5C 275.833,479.5 271.167,479.5 266.5,479.5 Z"/></g>
<g><path style="opacity:1" fill="#b9edf1" d="M 192.5,463.5 C 190.5,463.5 188.5,463.5 186.5,463.5C 186.5,474.5 186.5,485.5 186.5,496.5C 188.167,496.5 189.833,496.5 191.5,496.5C 189.735,497.461 187.735,497.795 185.5,497.5C 185.5,485.833 185.5,474.167 185.5,462.5C 188.059,462.198 190.393,462.532 192.5,463.5 Z"/></g>
<g><path style="opacity:1" fill="#64b5bf" d="M 294.5,482.5 C 294.5,485.167 294.5,487.833 294.5,490.5C 300.69,490.177 306.69,490.51 312.5,491.5C 306.167,491.5 299.833,491.5 293.5,491.5C 293.19,488.287 293.523,485.287 294.5,482.5 Z"/></g>
<g><path style="opacity:1" fill="#96bbbe" d="M 244.5,491.5 C 245.461,493.265 245.795,495.265 245.5,497.5C 236.651,497.826 227.984,497.493 219.5,496.5C 227.833,496.5 236.167,496.5 244.5,496.5C 244.5,494.833 244.5,493.167 244.5,491.5 Z"/></g>
<g><path style="opacity:1" fill="#97bdbf" d="M 347.5,495.5 C 348.043,495.56 348.376,495.893 348.5,496.5C 345.691,497.8 343.024,497.8 340.5,496.5C 343.059,496.802 345.393,496.468 347.5,495.5 Z"/></g>
<g><path style="opacity:1" fill="#b9e1e3" d="M 371.5,511.5 C 362.833,511.5 354.167,511.5 345.5,511.5C 345.5,512.833 345.5,514.167 345.5,515.5C 348.713,515.19 351.713,515.523 354.5,516.5C 351.167,516.5 347.833,516.5 344.5,516.5C 344.5,514.5 344.5,512.5 344.5,510.5C 353.682,510.173 362.682,510.507 371.5,511.5 Z"/></g>
<g><path style="opacity:1" fill="#f2f9f9" d="M 197.5,510.5 C 199.833,510.5 202.167,510.5 204.5,510.5C 204.666,519.839 204.5,529.173 204,538.5C 202.833,541 201,542.833 198.5,544C 188.559,547.2 183.559,543.7 183.5,533.5C 185.5,533.5 187.5,533.5 189.5,533.5C 189.178,536.532 190.511,538.199 193.5,538.5C 194.994,538.291 196.161,537.624 197,536.5C 197.5,527.84 197.666,519.173 197.5,510.5 Z"/></g>
<g><path style="opacity:1" fill="#f1f9f9" d="M 221.5,510.5 C 224.119,510.232 226.619,510.565 229,511.5C 233.742,522.311 237.909,533.311 241.5,544.5C 239.076,544.808 236.743,544.474 234.5,543.5C 233.786,541.189 232.786,539.022 231.5,537C 226.845,536.501 222.179,536.334 217.5,536.5C 218.259,543.408 215.259,546.075 208.5,544.5C 212.266,532.965 216.599,521.632 221.5,510.5 Z"/></g>
<g><path style="opacity:1" fill="#f0f8f8" d="M 313.5,510.5 C 320.841,510.334 328.174,510.5 335.5,511C 337.667,511.833 339.167,513.333 340,515.5C 341.874,522.231 339.707,527.065 333.5,530C 337.412,534.077 340.745,538.577 343.5,543.5C 340.894,544.652 338.227,544.818 335.5,544C 332.55,539.382 329.216,535.048 325.5,531C 323.866,530.506 322.199,530.34 320.5,530.5C 320.5,535.167 320.5,539.833 320.5,544.5C 318.167,544.5 315.833,544.5 313.5,544.5C 313.5,533.167 313.5,521.833 313.5,510.5 Z"/></g>
<g><path style="opacity:1" fill="#fafdfc" d="M 371.5,511.5 C 371.5,512.833 371.5,514.167 371.5,515.5C 368.167,515.5 364.833,515.5 361.5,515.5C 361.5,525.167 361.5,534.833 361.5,544.5C 359.5,544.5 357.5,544.5 355.5,544.5C 355.827,534.985 355.494,525.652 354.5,516.5C 351.713,515.523 348.713,515.19 345.5,515.5C 345.5,514.167 345.5,512.833 345.5,511.5C 354.167,511.5 362.833,511.5 371.5,511.5 Z"/></g>
<g><path style="opacity:1" fill="#f0f8f8" d="M 382.5,510.5 C 385.247,510.187 387.914,510.52 390.5,511.5C 394.534,522.32 398.867,532.987 403.5,543.5C 400.914,544.48 398.247,544.813 395.5,544.5C 395.924,538.028 392.924,535.361 386.5,536.5C 384.167,536.833 381.833,537.167 379.5,537.5C 378.399,539.642 377.399,541.808 376.5,544C 374.098,544.814 371.765,544.647 369.5,543.5C 374.037,532.55 378.371,521.55 382.5,510.5 Z"/></g>
<g><path style="opacity:1" fill="#eff8f8" d="M 245.5,510.5 C 247.833,510.5 250.167,510.5 252.5,510.5C 252.173,515.214 252.507,519.88 253.5,524.5C 257.686,520.149 261.686,515.649 265.5,511C 268.554,510.179 271.554,510.345 274.5,511.5C 270.692,515.479 267.025,519.646 263.5,524C 267.257,530.758 271.423,537.258 276,543.5C 280.425,532.975 284.592,522.308 288.5,511.5C 291.106,510.348 293.773,510.182 296.5,511C 301.219,522.063 305.552,533.23 309.5,544.5C 302.741,546.075 299.741,543.408 300.5,536.5C 295.821,536.334 291.155,536.501 286.5,537C 285.214,539.022 284.214,541.189 283.5,543.5C 278.198,544.663 272.864,544.829 267.5,544C 264.771,538.694 261.438,533.861 257.5,529.5C 255.851,530.648 254.351,531.981 253,533.5C 252.501,537.152 252.335,540.818 252.5,544.5C 250.167,544.5 247.833,544.5 245.5,544.5C 245.5,533.167 245.5,521.833 245.5,510.5 Z"/></g>
<g><path style="opacity:1" fill="#118596" d="M 320.5,516.5 C 324.514,516.334 328.514,516.501 332.5,517C 333.833,519.333 333.833,521.667 332.5,524C 328.514,524.499 324.514,524.666 320.5,524.5C 320.5,521.833 320.5,519.167 320.5,516.5 Z"/></g>
<g><path style="opacity:0.107" fill="#ecf7f7" d="M 11.5,291.5 C 15.7,320.66 21.3667,349.66 28.5,378.5C 28.9229,383.54 30.2562,388.207 32.5,392.5C 49.2473,452.911 71.4139,511.244 99,567.5C 108.398,587.305 119.065,606.305 131,624.5C 145.375,626.743 159.542,629.41 173.5,632.5C 157.755,630.987 142.088,628.821 126.5,626C 115.717,605.602 105.05,585.102 94.5,564.5C 95.6085,562.786 94.9418,562.119 92.5,562.5C 92.33,561.178 92.6634,560.011 93.5,559C 92.552,558.517 91.552,558.351 90.5,558.5C 88.7405,552.553 86.2405,546.886 83,541.5C 71.7257,513.95 60.7257,486.283 50,458.5C 49.2797,456.888 49.4464,455.388 50.5,454C 47.527,452.776 46.8603,450.776 48.5,448C 47.552,447.517 46.552,447.351 45.5,447.5C 45.33,446.178 45.6634,445.011 46.5,444C 45.5838,443.626 44.7504,443.126 44,442.5C 29.9324,398.549 19.4324,353.549 12.5,307.5C 11.5052,302.208 11.1718,296.875 11.5,291.5 Z"/></g>
<g><path style="opacity:1" fill="#1f8597" d="M 224.5,519.5 C 226.99,522.626 228.323,526.292 228.5,530.5C 226.167,530.5 223.833,530.5 221.5,530.5C 221.892,526.658 222.892,522.991 224.5,519.5 Z"/></g>
<g><path style="opacity:1" fill="#2e8e9c" d="M 385.5,519.5 C 386.458,519.953 387.292,520.619 388,521.5C 388.834,524.172 389.668,526.839 390.5,529.5C 387.914,530.48 385.247,530.813 382.5,530.5C 382.894,526.653 383.894,522.986 385.5,519.5 Z"/></g>
<g><path style="opacity:0.092" fill="#e8f5f6" d="M 635.5,323.5 C 635.826,327.884 635.492,332.217 634.5,336.5C 631.001,354.154 627.168,371.82 623,389.5C 618.129,407.779 612.462,425.779 606,443.5C 604.846,447.454 604.013,451.454 603.5,455.5C 602.448,455.351 601.448,455.517 600.5,456C 601.554,457.388 601.72,458.888 601,460.5C 593.275,478.617 586.108,496.95 579.5,515.5C 572.584,530.619 566.084,545.286 560,559.5C 559.25,560.126 558.416,560.626 557.5,561C 558.337,562.011 558.67,563.178 558.5,564.5C 556.058,564.119 555.391,564.786 556.5,566.5C 555.91,567.799 554.91,568.632 553.5,569C 554.451,569.718 554.617,570.551 554,571.5C 544.094,589.71 534.26,607.877 524.5,626C 507.469,628.864 491.136,631.197 475.5,633C 475.833,633.333 476.167,633.667 476.5,634C 466.519,635.165 456.519,635.998 446.5,636.5C 471.356,632.135 496.356,627.969 521.5,624C 576.113,530.354 614.113,430.188 635.5,323.5 Z"/></g>
<g><path style="opacity:1" fill="#7ebec0" d="M 371.5,515.5 C 368.713,516.477 365.713,516.81 362.5,516.5C 362.827,526.015 362.494,535.348 361.5,544.5C 361.5,534.833 361.5,525.167 361.5,515.5C 364.833,515.5 368.167,515.5 371.5,515.5 Z"/></g>
<g><path style="opacity:1" fill="#248896" d="M 291.5,519.5 C 294.458,522.426 296.125,526.093 296.5,530.5C 293.753,530.813 291.086,530.48 288.5,529.5C 289.909,526.273 290.909,522.94 291.5,519.5 Z"/></g>
<g><path style="opacity:1" fill="#c1e4e8" d="M 454.5,619.5 C 449.891,620.339 445.224,621.506 440.5,623C 434.843,623.499 429.176,623.666 423.5,623.5C 433.626,621.609 443.959,620.275 454.5,619.5 Z"/></g>
<g><path style="opacity:1" fill="#a9dbe0" d="M 423.5,623.5 C 419.081,624.972 414.414,625.638 409.5,625.5C 413.919,624.028 418.586,623.362 423.5,623.5 Z"/></g>
<g><path style="opacity:1" fill="#63b2bb" d="M 462.5,626.5 C 455.766,628.453 448.766,629.453 441.5,629.5C 448.264,627.765 455.264,626.765 462.5,626.5 Z"/></g>
<g><path style="opacity:1" fill="#a2d8dd" d="M 263.5,627.5 C 270.037,627.586 276.37,628.253 282.5,629.5C 275.938,629.663 269.605,628.996 263.5,627.5 Z"/></g>
<g><path style="opacity:1" fill="#c6f5f8" d="M 360.5,629.5 C 358.369,630.314 356.036,630.814 353.5,631C 337.328,631.828 321.328,631.661 305.5,630.5C 323.845,630.627 342.178,630.293 360.5,629.5 Z"/></g>
<g><path style="opacity:1" fill="#8fced5" d="M 440.5,629.5 C 432.399,631.29 424.066,632.29 415.5,632.5C 423.6,630.729 431.933,629.729 440.5,629.5 Z"/></g>
<g><path style="opacity:1" fill="#add9de" d="M 229.5,631.5 C 234.434,631.229 239.1,631.896 243.5,633.5C 238.586,633.638 233.919,632.972 229.5,631.5 Z"/></g>
<g><path style="opacity:0.11" fill="#f5fcf9" d="M 175.5,632.5 C 179.79,632.198 183.79,632.864 187.5,634.5C 183.029,635.089 179.029,634.423 175.5,632.5 Z"/></g>
<g><path style="opacity:1" fill="#b8e0e4" d="M 253.5,634.5 C 265.113,634.036 276.446,635.036 287.5,637.5C 275.966,637.112 264.633,636.112 253.5,634.5 Z"/></g>
<g><path style="opacity:0.095" fill="#f1fcfc" d="M 189.5,634.5 C 194.076,634.438 198.409,635.105 202.5,636.5C 197.706,637.097 193.373,636.43 189.5,634.5 Z"/></g>
<g><path style="opacity:0.107" fill="#f9fdfd" d="M 203.5,636.5 C 208.37,636.69 213.036,637.356 217.5,638.5C 212.381,639.103 207.715,638.436 203.5,636.5 Z"/></g>
<g><path style="opacity:0.057" fill="#e9f8f7" d="M 445.5,636.5 C 441.614,638.275 437.28,639.108 432.5,639C 432.833,639.333 433.167,639.667 433.5,640C 420.867,641.418 408.2,642.251 395.5,642.5C 411.998,640.247 428.665,638.247 445.5,636.5 Z"/></g>
<g><path style="opacity:0.12" fill="#edf9fa" d="M 220.5,638.5 C 226.034,638.668 231.367,639.335 236.5,640.5C 230.824,640.666 225.157,640.499 219.5,640C 220.056,639.617 220.389,639.117 220.5,638.5 Z"/></g>
<g><path style="opacity:0.142" fill="#f7fbfb" d="M 238.5,640.5 C 243.986,641.018 249.319,641.685 254.5,642.5C 248.729,643.113 243.396,642.446 238.5,640.5 Z"/></g>
<g><path style="opacity:0.16" fill="#e1f3f6" d="M 392.5,643.5 C 385.018,644.492 377.352,644.825 369.5,644.5C 377.037,642.788 384.704,642.454 392.5,643.5 Z"/></g>
<g><path style="opacity:0.233" fill="#f2fcfd" d="M 279.5,644.5 C 308.829,645.728 338.163,645.728 367.5,644.5C 353.182,645.833 338.516,646.499 323.5,646.5C 308.484,646.499 293.818,645.833 279.5,644.5 Z"/></g>
</svg>
